<?xml version="1.0" standalone="no"?>
<!DOCTYPE svg PUBLIC "-//W3C//DTD SVG 20010904//EN"
 "http://www.w3.org/TR/2001/REC-SVG-20010904/DTD/svg10.dtd">
<svg version="1.0" xmlns="http://www.w3.org/2000/svg"
 width="64.000000pt" height="64.000000pt" viewBox="0 0 64.000000 64.000000"
 preserveAspectRatio="xMidYMid meet">

<g transform="translate(0.000000,64.000000) scale(0.100000,-0.100000)"
fill="#000000" stroke="none">
<path d="M62 577 c-21 -22 -22 -31 -20 -203 l2 -179 6 177 c4 152 8 180 23
195 15 16 43 19 200 23 l182 6 -186 2 c-182 2 -186 2 -207 -21z"/>
<path d="M504 591 c84 -12 86 -17 86 -273 l0 -219 -25 -24 -24 -25 -219 0
c-253 0 -260 2 -272 81 l-7 44 -2 -46 c-1 -36 4 -50 22 -67 23 -21 31 -22 258
-22 233 0 236 0 257 23 21 23 22 31 22 258 0 233 0 236 -23 257 -18 17 -35 22
-73 21 l-49 -2 49 -6z"/>
<path d="M205 473 c-3 -16 -10 -42 -16 -60 -20 -63 18 -143 67 -143 8 0 14 -4
14 -10 0 -17 -30 -11 -57 10 -14 11 -29 17 -34 14 -14 -8 41 -74 63 -74 24 0
34 -26 18 -45 -17 -21 3 -27 76 -23 l59 3 -3 45 c-2 25 -6 53 -8 63 -4 12 0
17 14 17 49 0 84 86 58 142 -8 18 -16 44 -18 58 -2 16 -9 24 -18 21 -52 -13
-152 -16 -172 -4 -33 18 -37 16 -43 -14z m114 -11 c38 -2 68 1 74 7 20 20 37
12 37 -18 0 -17 5 -33 10 -36 6 -3 10 -26 10 -50 0 -35 -5 -48 -26 -64 -15
-12 -35 -21 -44 -21 -15 0 -17 -7 -13 -43 2 -23 6 -50 8 -60 3 -14 -5 -17 -46
-17 -48 0 -49 1 -49 30 0 25 -4 30 -24 30 -14 0 -27 4 -30 9 -4 5 3 7 14 4 22
-6 63 24 54 38 -3 5 -14 9 -25 9 -35 0 -69 44 -69 89 0 22 5 43 10 46 6 3 10
20 10 37 0 25 3 29 18 22 9 -4 46 -10 81 -12z"/>
</g>
</svg>
