<?xml version="1.0" standalone="no"?>
<!DOCTYPE svg PUBLIC "-//W3C//DTD SVG 20010904//EN"
 "http://www.w3.org/TR/2001/REC-SVG-20010904/DTD/svg10.dtd">
<svg version="1.0" xmlns="http://www.w3.org/2000/svg"
 width="64.000000pt" height="64.000000pt" viewBox="0 0 64.000000 64.000000"
 preserveAspectRatio="xMidYMid meet">

<g transform="translate(0.000000,64.000000) scale(0.100000,-0.100000)"
fill="#000000" stroke="none">
<path d="M40 543 c-36 -13 -40 -33 -40 -223 0 -145 3 -190 14 -206 14 -18 29
-19 306 -19 277 0 292 1 306 19 20 29 20 383 0 412 -14 18 -30 19 -293 21
-153 1 -285 -1 -293 -4z m513 -56 c-21 -18 -82 -70 -135 -115 l-98 -83 -135
116 -136 115 271 0 270 0 -37 -33z m-413 -77 c41 -34 77 -65 79 -67 6 -5 -181
-193 -191 -193 -10 0 -11 334 -1 343 3 4 13 1 22 -6 9 -8 50 -42 91 -77z m480
-91 c0 -93 -3 -169 -8 -169 -4 0 -50 43 -102 95 l-95 95 40 32 c22 18 64 54
95 79 30 26 58 45 63 42 4 -2 7 -80 7 -174z m-336 -30 l35 -30 42 33 41 33 94
-100 93 -100 -135 -3 c-73 -1 -194 -1 -268 0 l-134 3 90 98 c49 53 94 97 99
97 4 0 24 -14 43 -31z"/>
</g>
</svg>
