<?xml version="1.0" standalone="no"?>
<!DOCTYPE svg PUBLIC "-//W3C//DTD SVG 20010904//EN"
 "http://www.w3.org/TR/2001/REC-SVG-20010904/DTD/svg10.dtd">
<svg version="1.0" xmlns="http://www.w3.org/2000/svg"
 width="64.000000pt" height="64.000000pt" viewBox="0 0 64.000000 64.000000"
 preserveAspectRatio="xMidYMid meet">

<g transform="translate(0.000000,64.000000) scale(0.100000,-0.100000)"
fill="#000000" stroke="none">
<path d="M16 624 c-14 -13 -16 -55 -16 -304 0 -249 2 -291 16 -304 12 -13 41
-16 155 -16 187 0 184 19 -3 22 l-143 3 0 295 0 295 295 0 295 0 3 -72 c4 -93
22 -96 22 -4 0 107 18 101 -320 101 -249 0 -291 -2 -304 -16z"/>
<path d="M158 524 c-52 -28 -73 -105 -44 -162 7 -15 16 -46 19 -70 5 -44 30
-92 47 -92 6 0 1 17 -10 37 -11 21 -20 54 -20 73 0 19 -7 44 -15 54 -26 34
-19 94 14 127 33 33 93 40 127 14 10 -8 34 -15 52 -15 81 0 151 -65 160 -148
3 -26 11 -56 18 -67 43 -61 -8 -155 -83 -155 -22 0 -48 7 -59 15 -10 8 -34 15
-52 15 -19 0 -49 7 -68 16 -19 9 -37 14 -40 11 -11 -10 46 -39 88 -44 24 -3
55 -12 70 -19 107 -55 222 63 163 166 -8 14 -14 38 -15 54 -1 81 -77 162 -162
173 -24 3 -55 12 -70 19 -35 18 -86 17 -120 -2z"/>
<path d="M229 431 c-16 -16 -29 -40 -29 -53 0 -51 62 -98 131 -98 20 0 29 -4
27 -12 -7 -20 -58 -22 -78 -3 -28 25 -64 16 -68 -17 -5 -39 45 -68 116 -68 46
0 58 4 83 29 68 68 9 151 -108 151 -34 0 -24 24 11 28 16 2 36 -4 46 -13 27
-25 64 -16 68 16 5 43 -37 69 -110 69 -52 0 -63 -3 -89 -29z m165 -11 c11 -11
16 -25 12 -35 -5 -15 -9 -14 -32 4 -43 34 -114 22 -114 -19 0 -20 7 -23 80
-34 51 -9 80 -32 80 -65 0 -57 -79 -94 -143 -68 -40 17 -51 31 -43 53 5 13 10
12 32 -5 43 -34 114 -22 114 19 0 20 -7 23 -83 35 -45 7 -77 36 -77 68 0 26
34 62 65 70 33 9 89 -3 109 -23z"/>
<path d="M618 233 l-3 -208 -137 -3 c-181 -3 -184 -22 -4 -22 109 0 138 3 150
16 14 13 16 47 16 220 0 126 -4 204 -10 204 -6 0 -11 -81 -12 -207z"/>
</g>
</svg>
