<?xml version="1.0" standalone="no"?>
<!DOCTYPE svg PUBLIC "-//W3C//DTD SVG 20010904//EN"
 "http://www.w3.org/TR/2001/REC-SVG-20010904/DTD/svg10.dtd">
<svg version="1.0" xmlns="http://www.w3.org/2000/svg"
 width="64.000000pt" height="64.000000pt" viewBox="0 0 64.000000 64.000000"
 preserveAspectRatio="xMidYMid meet">

<g transform="translate(0.000000,64.000000) scale(0.100000,-0.100000)"
fill="#000000" stroke="none">
<path d="M152 628 c-17 -17 -17 -599 0 -616 17 -17 319 -17 336 0 17 17 17
599 0 616 -17 17 -319 17 -336 0z m326 -30 c3 -17 -10 -18 -157 -18 -128 0
-161 3 -161 13 0 8 3 17 7 21 4 3 75 5 157 4 134 -3 151 -5 154 -20z m2 -258
l0 -210 -160 0 -160 0 0 210 0 210 160 0 160 0 0 -210z m-2 -272 l-3 -43 -155
0 -155 0 -3 43 -3 42 161 0 161 0 -3 -42z"/>
<path d="M260 600 c0 -6 27 -10 60 -10 33 0 60 4 60 10 0 6 -27 10 -60 10 -33
0 -60 -4 -60 -10z"/>
<path d="M430 600 c0 -5 7 -10 16 -10 8 0 12 5 9 10 -3 6 -10 10 -16 10 -5 0
-9 -4 -9 -10z"/>
<path d="M298 89 c-24 -14 -23 -46 2 -54 49 -16 84 31 41 55 -23 12 -22 12
-43 -1z m34 -31 c-9 -9 -15 -9 -24 0 -9 9 -7 12 12 12 19 0 21 -3 12 -12z"/>
</g>
</svg>
