<?xml version="1.0" standalone="no"?>
<!DOCTYPE svg PUBLIC "-//W3C//DTD SVG 20010904//EN"
 "http://www.w3.org/TR/2001/REC-SVG-20010904/DTD/svg10.dtd">
<svg version="1.0" xmlns="http://www.w3.org/2000/svg"
 width="64.000000pt" height="64.000000pt" viewBox="0 0 64.000000 64.000000"
 preserveAspectRatio="xMidYMid meet">

<g transform="translate(0.000000,64.000000) scale(0.100000,-0.100000)"
fill="#000000" stroke="none">
<path d="M62 577 c-21 -22 -22 -31 -20 -203 l2 -179 6 177 c4 152 8 180 23
195 15 16 43 19 200 23 l182 6 -186 2 c-182 2 -186 2 -207 -21z"/>
<path d="M504 591 c84 -12 86 -17 86 -273 l0 -219 -25 -24 -24 -25 -219 0
c-253 0 -260 2 -272 81 l-7 44 -2 -46 c-1 -36 4 -50 22 -67 23 -21 31 -22 258
-22 233 0 236 0 257 23 21 23 22 31 22 258 0 233 0 236 -23 257 -18 17 -35 22
-73 21 l-49 -2 49 -6z"/>
<path d="M307 415 c-87 -34 -163 -67 -170 -74 -8 -8 2 -16 39 -32 47 -20 52
-25 63 -70 7 -27 17 -52 23 -55 5 -4 23 4 40 16 l30 22 44 -32 c24 -17 50 -30
56 -28 12 4 79 304 70 313 -11 10 -41 1 -195 -60z m159 -71 c-14 -66 -28 -132
-31 -146 l-7 -27 -48 35 -47 34 -27 -21 c-20 -16 -30 -19 -39 -10 -8 8 -8 11
0 11 6 0 14 12 17 28 4 16 36 54 79 94 40 36 69 69 65 73 -7 7 -173 -90 -184
-106 -2 -4 -25 -1 -50 8 -25 8 -43 17 -41 20 6 6 331 131 335 128 1 -1 -9 -56
-22 -121z m-156 -29 c-24 -25 -45 -45 -47 -45 -2 0 -3 8 -3 18 0 14 71 71 90
72 2 0 -16 -20 -40 -45z"/>
</g>
</svg>
